# xmcd
#
# Track frame offsets:
#	150
#	15791
#	32809
#	48418
#	62457
#	78119
#	91003
#	106736
#	119238
#	139508
#	155054
#	171202
#	189108
#	204495
#	219361
#	235340
#	251564
#	263522
#	280759
#	296808
#
# Disc length: 4171 seconds
# Revision: 0
# Processed by: cddbd v1.5.2PL0 Copyright (c) Steve Scherf et al.
# Submitted via: dBpowerAMP V12.0
#
DISCID=08104914
DTITLE=Various Artist - Country Radio June 2011
DYEAR=2011
DGENRE=Country
TTITLE0=Blake Shelton - Honey Bee
TTITLE1=Terri Clark - Northern Girl
TTITLE2=Trace Adkins - Just Fishin
TTITLE3=One More Girl - Fall Like That
TTITLE4=Reba - When Love Gets A Hold Of You
TTITLE5=Tara Oram - 1929
TTITLE6=Jason Blaine - Watching The World Go Round
TTITLE7=Jake Owen - Barefoot Blue Jean Night
TTITLE8=Sugarland - Tonight
TTITLE9=Rodney Atkins - Take A Back Road
TTITLE10=Jason Kirkness - Go Country
TTITLE11=Kenny Chesney and Grace Potter - You and Tequila
TTITLE12=Kid Rock Feat Sheryl Crow - Collide (Alternate Version)
TTITLE13=Eli Young Band - Crazy Girl
TTITLE14=Frankie Ballad - A Buncha Girls
TTITLE15=Steve Holy - Love Don't Run
TTITLE16=Bradley Gaskin - Mr Bartender
TTITLE17=Chad Brownlee - Carried Away (Remix)
TTITLE18=Jake Mathews - Forever's On Our Side
TTITLE19=Jennette Mc Curdy - Generation Love
EXTD=
EXTT0=
EXTT1=
EXTT2=
EXTT3=
EXTT4=
EXTT5=
EXTT6=
EXTT7=
EXTT8=
EXTT9=
EXTT10=
EXTT11=
EXTT12=
EXTT13=
EXTT14=
EXTT15=
EXTT16=
EXTT17=
EXTT18=
EXTT19=
PLAYORDER=
